<svg id="Layer_1" data-name="Layer 1" xmlns="http://www.w3.org/2000/svg" viewBox="0 0 1080 1080"><defs><style>.cls-1{fill:#fff;}</style></defs><title>Logo_W</title><polygon class="cls-1" points="560.36 421.65 528.97 426.06 522.21 341.28 554.12 339.15 560.36 421.65"/><polygon class="cls-1" points="516.97 432.03 492.62 448.47 451.69 371.27 477.83 357.89 516.97 432.03"/><polygon class="cls-1" points="484.77 459.89 474.4 484.84 408.53 430.23 422.72 406.73 484.77 459.89"/><polygon class="cls-1" points="474.59 525.26 400.63 501.76 401.44 474.2 474.13 498.26 474.59 525.26"/><polygon class="cls-1" points="490.53 559.71 424.94 568.42 414 544.31 478.54 537.24 490.53 559.71"/><polygon class="cls-1" points="517.55 583.64 499.19 568.95 452.5 599.22 470.13 615.43 517.55 583.64"/><polygon class="cls-1" points="547.89 594.2 528.22 587.51 503.16 631.23 523.22 638.73 547.89 594.2"/><polygon class="cls-1" points="572.05 638.53 554.09 639.74 555.89 593.71 573.85 591.88 572.05 638.53"/><polygon class="cls-1" points="609.64 620.29 596.37 628.09 580.34 588.06 593.92 580.36 609.64 620.29"/><polygon class="cls-1" points="632.03 591.38 624.6 602.6 597.38 573.89 605.08 562.41 632.03 591.38"/><polygon class="cls-1" points="637.97 570.58 605.36 555.31 606.48 542.05 639.19 557.21 637.97 570.58"/><polygon class="cls-1" points="636.08 536.81 605.87 536.29 602.49 523.86 632.7 524.65 636.08 536.81"/><polygon class="cls-1" points="557.77 498.15 548.85 501.66 541.12 480.07 550.03 476.29 557.77 498.15"/><polygon class="cls-1" points="571 499.89 561.14 498.26 565.16 474.94 575.02 476.56 571 499.89"/><polygon class="cls-1" points="600.42 487.1 591.5 480.88 575.74 501.25 585.72 506.86 600.42 487.1"/><polygon class="cls-1" points="598.75 519.12 622.03 507.9 615.28 498.58 590.5 510.12 598.75 519.12"/><path class="cls-1" d="M372.58,717.34h9.33v17.9a26.41,26.41,0,0,1-8.32,4.16,32.16,32.16,0,0,1-9.52,1.45,25.83,25.83,0,0,1-12.35-2.93,21.79,21.79,0,0,1-8.6-8.13,23.7,23.7,0,0,1,0-23.51,21.83,21.83,0,0,1,8.66-8.13,26.36,26.36,0,0,1,12.48-2.93,27.17,27.17,0,0,1,10.53,2,20.8,20.8,0,0,1,7.94,5.67l-6.56,6a15.15,15.15,0,0,0-11.4-5,15.61,15.61,0,0,0-7.5,1.76,12.69,12.69,0,0,0-5.11,5,15.65,15.65,0,0,0,0,14.69,13,13,0,0,0,5.08,5,15.09,15.09,0,0,0,7.4,1.79,16.54,16.54,0,0,0,7.94-1.89Z"/><path class="cls-1" d="M400,735.62q-5.26-5.24-5.27-14.94V696H405v24.33q0,11.84,9.84,11.84,4.79,0,7.31-2.86c1.68-1.91,2.52-4.91,2.52-9V696h10.08v24.7q0,9.71-5.26,14.94t-14.72,5.23Q405.29,740.85,400,735.62Z"/><path class="cls-1" d="M476.7,740.09l-8.51-12.28H458.8v12.28H448.59V696h19.09a24.55,24.55,0,0,1,10.18,1.95,14.6,14.6,0,0,1,9,14.06,14.36,14.36,0,0,1-9.07,13.92l9.89,14.18Zm-2.59-33.81c-1.59-1.32-3.93-2-7-2H458.8v15.37h8.32c3.06,0,5.4-.67,7-2a7.94,7.94,0,0,0,0-11.38Z"/><path class="cls-1" d="M503.57,735.62q-5.25-5.24-5.26-14.94V696h10.21v24.33q0,11.84,9.83,11.84c3.2,0,5.63-.95,7.31-2.86s2.52-4.91,2.52-9V696h10.09v24.7q0,9.71-5.26,14.94t-14.72,5.23Q508.84,740.85,503.57,735.62Z"/><path class="cls-1" d="M552,739.18a15.72,15.72,0,0,1-6.15-4.76l5.68-6.8q3.58,4.85,8.19,4.85,6.24,0,6.24-7.31v-21H550.49V696h25.65v28.61q0,8.13-4,12.2t-11.85,4.06A20,20,0,0,1,552,739.18Z"/><path class="cls-1" d="M618.12,730.64H597.63l-3.9,9.45H583.26L602.93,696H613l19.73,44.11H622Zm-3.22-7.75-7-16.89-7,16.89Z"/><path class="cls-1" d="M641.12,696h20a28.15,28.15,0,0,1,12.7,2.74,20.52,20.52,0,0,1,8.57,7.72,23.5,23.5,0,0,1,0,23.19,20.46,20.46,0,0,1-8.57,7.72,28.15,28.15,0,0,1-12.7,2.74h-20Zm19.54,35.73q6.62,0,10.55-3.68t3.94-10q0-6.3-3.94-10t-10.55-3.69h-9.33v27.35Z"/><path class="cls-1" d="M725.38,730.64H704.9L701,740.09H690.53L710.19,696h10.08L740,740.09H729.29Zm-3.22-7.75-7-16.89-7,16.89Z"/></svg>