<svg id="Layer_1" data-name="Layer 1" xmlns="http://www.w3.org/2000/svg" viewBox="0 0 1080 1080"><defs><style>.cls-1{fill:#fff;}</style></defs><title>Monogram_W</title><polygon class="cls-1" points="607.83 426.33 555.2 433.72 543.85 291.56 597.36 287.99 607.83 426.33"/><polygon class="cls-1" points="535.08 443.72 494.25 471.29 425.62 341.84 469.44 319.42 535.08 443.72"/><polygon class="cls-1" points="481.08 490.44 463.69 532.27 353.25 440.71 377.03 401.3 481.08 490.44"/><polygon class="cls-1" points="464.01 600.05 340 560.64 341.36 514.43 463.24 554.78 464.01 600.05"/><polygon class="cls-1" points="490.73 657.81 380.77 672.42 362.42 631.99 470.63 620.14 490.73 657.81"/><polygon class="cls-1" points="536.04 697.95 505.27 673.31 426.98 724.06 456.54 751.24 536.04 697.95"/><polygon class="cls-1" points="586.91 715.65 553.94 704.43 511.91 777.74 545.55 790.31 586.91 715.65"/><polygon class="cls-1" points="627.43 789.97 597.3 792.01 600.33 714.83 630.45 711.76 627.43 789.97"/><polygon class="cls-1" points="690.45 759.39 668.2 772.48 641.33 705.35 664.09 692.43 690.45 759.39"/><polygon class="cls-1" points="728 710.92 715.54 729.72 669.9 681.6 682.82 662.35 728 710.92"/><polygon class="cls-1" points="737.96 676.04 683.28 650.44 685.15 628.21 740 653.62 737.96 676.04"/><polygon class="cls-1" points="734.79 619.42 684.13 618.55 678.47 597.71 729.13 599.03 734.79 619.42"/><polygon class="cls-1" points="603.48 554.59 588.53 560.48 575.56 524.29 590.51 517.95 603.48 554.59"/><polygon class="cls-1" points="625.67 557.5 609.14 554.79 615.88 515.68 632.41 518.4 625.67 557.5"/><polygon class="cls-1" points="674.99 536.07 660.04 525.65 633.61 559.79 650.35 569.19 674.99 536.07"/><polygon class="cls-1" points="672.2 589.76 711.23 570.95 699.91 555.32 658.37 574.66 672.2 589.76"/></svg>