<?xml version="1.0" standalone="no"?>
<!DOCTYPE svg PUBLIC "-//W3C//DTD SVG 20010904//EN"
 "http://www.w3.org/TR/2001/REC-SVG-20010904/DTD/svg10.dtd">
<svg version="1.0" xmlns="http://www.w3.org/2000/svg"
 width="4501.000000pt" height="4501.000000pt" viewBox="0 0 4501.000000 4501.000000"
 preserveAspectRatio="xMidYMid meet">
<metadata>
Created by potrace 1.11, written by Peter Selinger 2001-2013
</metadata>
<g transform="translate(0.000000,4501.000000) scale(0.100000,-0.100000)"
fill="#000000" stroke="none">
<path d="M24756 33003 c-1 -1 -49 -5 -106 -8 -58 -3 -127 -7 -155 -10 -27 -2
-99 -7 -159 -10 -60 -4 -128 -8 -150 -10 -23 -2 -84 -6 -136 -10 -52 -3 -122
-8 -155 -10 -54 -4 -153 -10 -305 -20 -57 -4 -210 -14 -290 -20 -25 -2 -94 -6
-155 -10 -60 -4 -132 -9 -160 -11 -27 -1 -100 -6 -162 -9 -61 -4 -120 -8 -130
-10 -10 -2 -21 -4 -25 -4 -3 -1 -5 -13 -3 -28 2 -16 6 -64 9 -108 4 -44 9
-109 12 -145 5 -68 10 -130 19 -242 6 -75 15 -182 20 -243 2 -22 6 -80 10
-130 3 -49 7 -106 10 -125 2 -19 7 -75 10 -125 4 -49 8 -108 10 -130 3 -22 7
-83 10 -135 3 -52 8 -108 10 -125 2 -16 7 -66 10 -110 3 -44 8 -102 10 -130 3
-27 7 -79 9 -115 7 -95 17 -219 22 -270 2 -24 6 -83 9 -130 3 -47 7 -101 10
-120 2 -19 7 -73 10 -120 9 -114 14 -173 20 -245 3 -33 7 -85 9 -115 9 -114
18 -236 21 -280 3 -25 7 -79 10 -120 3 -41 8 -93 10 -115 2 -22 6 -78 10 -125
3 -47 8 -105 11 -130 2 -25 6 -83 9 -130 3 -47 7 -101 10 -120 2 -19 7 -75 11
-125 3 -49 8 -108 10 -130 2 -22 6 -74 9 -115 3 -41 7 -97 9 -125 10 -113 25
-289 31 -385 3 -41 7 -95 10 -120 2 -25 7 -76 10 -115 3 -38 8 -99 11 -135 5
-72 9 -123 19 -250 3 -47 8 -101 10 -120 2 -19 7 -75 10 -125 3 -49 8 -103 10
-120 2 -16 5 -56 6 -88 l2 -59 52 7 c29 3 61 7 72 9 11 3 44 7 74 10 30 3 63
8 75 10 12 2 45 7 74 11 29 4 61 8 70 10 9 2 41 6 71 10 30 3 77 10 104 15 28
5 75 12 105 15 30 3 62 8 70 10 8 2 44 7 80 10 35 4 67 8 70 10 3 2 30 6 60 9
30 3 64 8 75 10 11 2 43 7 70 10 146 20 610 85 645 91 14 3 48 7 76 10 28 3
60 7 71 9 11 3 42 7 69 11 27 3 58 7 69 9 11 2 49 7 83 11 l64 8 -7 89 c-3 49
-8 108 -10 131 -2 23 -6 80 -10 127 -3 47 -8 114 -10 150 -3 36 -8 92 -10 125
-3 33 -7 89 -10 125 -3 36 -7 97 -10 135 -3 39 -7 97 -10 130 -2 33 -7 96 -11
140 -3 44 -7 96 -9 115 -1 19 -6 87 -10 150 -4 63 -9 123 -11 132 -1 10 -5 61
-9 115 -3 54 -7 118 -10 143 -2 25 -6 81 -10 125 -3 44 -7 105 -10 135 -2 30
-7 89 -10 130 -12 176 -15 209 -20 275 -3 39 -8 97 -10 130 -3 33 -7 91 -10
128 -2 38 -7 94 -9 125 -3 31 -8 98 -11 147 -3 50 -8 106 -10 125 -2 19 -7 80
-10 135 -3 55 -8 118 -10 140 -2 22 -7 76 -10 120 -3 44 -8 107 -10 140 -3 33
-8 96 -11 140 -3 44 -7 100 -9 125 -2 25 -6 86 -10 135 -3 50 -8 106 -10 125
-3 19 -7 76 -10 126 -3 50 -7 108 -10 130 -2 21 -6 80 -10 129 -3 50 -8 115
-10 145 -2 30 -7 89 -10 130 -3 41 -7 100 -10 130 -2 30 -7 96 -10 145 -3 50
-8 106 -10 125 -2 19 -7 78 -10 130 -7 100 -9 130 -21 275 -4 50 -7 96 -7 103
0 9 -19 12 -69 10 -39 -2 -71 -4 -72 -5z"/>
<path d="M19370 31604 c-180 -93 -651 -334 -955 -489 -542 -276 -661 -338
-668 -345 -8 -7 35 -94 133 -275 15 -27 51 -95 80 -150 61 -115 129 -244 175
-330 18 -33 65 -123 105 -200 40 -77 76 -144 80 -150 4 -5 33 -59 64 -120 32
-60 72 -137 90 -170 31 -58 105 -199 209 -395 27 -52 60 -113 72 -135 12 -22
57 -107 100 -190 43 -82 81 -154 85 -160 4 -5 36 -64 70 -130 61 -116 102
-194 189 -357 82 -155 124 -235 189 -358 36 -69 76 -142 89 -162 13 -21 23
-42 23 -48 0 -6 11 -28 25 -50 14 -22 38 -65 53 -97 16 -32 46 -89 66 -128 72
-133 114 -210 166 -310 29 -55 70 -131 90 -170 21 -38 63 -119 95 -180 32 -60
88 -166 125 -235 37 -69 98 -183 135 -255 64 -123 90 -172 169 -317 51 -95
137 -259 156 -296 l16 -32 364 245 c201 135 374 252 385 260 66 48 212 146
225 152 8 4 17 9 20 13 3 3 73 51 155 106 261 175 530 356 543 367 13 10 -15
67 -248 502 -20 39 -64 121 -96 183 -32 62 -75 143 -95 180 -19 37 -64 121
-99 187 -34 66 -79 152 -100 190 -21 39 -61 115 -90 170 -29 55 -72 137 -96
183 -24 45 -64 119 -88 165 -24 45 -66 125 -93 177 -28 52 -71 133 -95 180
-25 47 -74 139 -108 205 -34 66 -71 134 -80 150 -10 17 -55 102 -101 190 -46
88 -98 187 -116 220 -17 33 -41 79 -53 102 -11 23 -45 86 -74 140 -50 93 -123
231 -244 463 -30 58 -67 128 -82 155 -34 63 -98 183 -185 350 -37 72 -82 157
-100 190 -18 33 -56 105 -85 160 -29 55 -69 132 -90 170 -20 39 -65 124 -100
190 -34 66 -77 147 -95 180 -18 33 -49 93 -70 133 -20 39 -40 72 -43 72 -4 -1
-90 -44 -192 -96z"/>
<path d="M15678 28233 c-38 -64 -551 -912 -577 -954 -9 -15 -41 -68 -71 -119
-30 -50 -62 -103 -71 -118 -9 -15 -66 -110 -128 -211 -61 -102 -110 -185 -108
-187 1 -1 31 -26 67 -55 36 -30 74 -62 85 -71 16 -14 265 -220 565 -468 340
-282 527 -437 536 -445 6 -5 30 -26 54 -45 73 -59 184 -150 210 -173 14 -12
50 -43 80 -67 30 -25 64 -52 75 -62 11 -9 54 -44 95 -78 41 -34 95 -79 120
-100 25 -21 77 -64 116 -96 39 -33 93 -77 119 -99 27 -22 79 -65 115 -95 37
-30 91 -76 121 -101 30 -25 133 -110 229 -189 96 -80 180 -149 186 -155 7 -5
20 -17 30 -25 15 -12 188 -155 289 -238 21 -17 304 -254 340 -284 11 -9 184
-152 385 -318 201 -166 383 -317 405 -335 22 -19 116 -97 209 -174 l169 -140
19 42 c11 23 40 92 65 152 25 61 51 124 58 140 7 17 52 124 100 239 48 115 92
221 97 235 6 14 12 28 13 31 1 3 6 16 12 30 27 64 355 853 359 864 3 7 -80 85
-193 181 -109 93 -200 172 -203 175 -3 3 -192 165 -420 360 -228 194 -417 356
-420 360 -3 3 -61 53 -130 110 -69 58 -127 108 -130 111 -3 3 -43 38 -90 78
-47 40 -96 83 -110 94 -14 12 -149 128 -300 257 -151 129 -288 247 -305 261
-16 15 -84 73 -150 129 -66 56 -131 112 -145 124 -14 11 -54 46 -90 76 -35 30
-69 60 -76 65 -6 6 -37 33 -69 60 -190 163 -307 264 -360 310 -33 28 -123 105
-199 170 -77 65 -151 128 -165 140 -14 13 -114 98 -221 190 -107 92 -206 177
-220 189 -146 125 -308 264 -321 274 -14 11 -21 5 -51 -45z"/>
<path d="M14229 23576 c-1 -1 -2 -37 -4 -81 -3 -82 -5 -158 -30 -955 -13 -456
-17 -599 -19 -739 l-1 -154 70 -23 c136 -43 588 -186 1075 -340 113 -36 223
-71 245 -79 22 -7 121 -39 220 -70 99 -31 257 -82 350 -112 94 -30 197 -63
230 -73 59 -18 564 -178 820 -260 163 -52 269 -86 460 -145 83 -25 159 -50
170 -55 11 -5 74 -25 140 -45 66 -20 188 -59 270 -85 83 -27 292 -94 465 -148
173 -55 387 -123 474 -151 87 -28 163 -51 167 -51 5 0 7 111 4 248 -3 136 -7
400 -10 587 -4 187 -8 439 -10 560 -2 121 -4 281 -5 355 l0 135 -422 140
c-233 77 -425 140 -428 140 -3 0 -18 6 -35 12 -16 6 -322 108 -680 226 -644
213 -2659 880 -3222 1067 -161 53 -293 96 -294 96z"/>
<path d="M25659 23503 c0 -10 -2 -25 -4 -33 -4 -21 -33 -187 -41 -234 -3 -21
-8 -48 -10 -60 -5 -25 -31 -177 -38 -226 -3 -19 -8 -48 -11 -65 -3 -16 -13
-68 -21 -115 -9 -46 -17 -96 -19 -110 -3 -24 -31 -184 -39 -226 -2 -12 -7 -39
-11 -60 -3 -22 -8 -52 -11 -69 -3 -16 -7 -41 -9 -55 -3 -14 -11 -65 -20 -115
-8 -49 -18 -106 -21 -125 -3 -19 -9 -49 -13 -66 -13 -49 -1 -58 89 -69 25 -2
55 -7 66 -9 12 -2 39 -7 60 -10 22 -4 104 -17 184 -31 80 -13 159 -26 175 -28
17 -3 48 -8 71 -12 31 -5 41 -4 42 6 0 12 16 106 48 284 11 63 35 201 39 225
2 14 18 106 35 205 17 99 33 191 35 205 2 14 11 66 20 115 9 50 18 101 20 115
2 14 13 79 25 145 12 66 24 134 27 150 23 138 29 175 27 175 -1 0 -37 7 -80
14 -44 8 -97 17 -119 21 -22 3 -65 10 -95 15 -30 5 -73 12 -95 15 -22 3 -51 8
-65 11 -14 2 -38 7 -55 10 -16 2 -54 9 -84 14 -80 14 -101 13 -102 -7z"/>
<path d="M24590 23422 c-8 -2 -33 -13 -55 -22 -22 -10 -143 -61 -270 -114
-126 -53 -240 -102 -253 -109 -28 -14 -29 -13 33 -182 25 -71 71 -197 100
-280 151 -427 376 -1049 380 -1054 3 -2 112 38 242 89 330 129 373 146 378
152 3 3 -27 94 -66 204 -39 109 -83 235 -99 279 -16 44 -56 159 -90 255 -34
96 -97 274 -140 395 -43 121 -91 256 -106 300 -31 90 -33 94 -54 87z"/>
<path d="M27379 22947 c-69 -89 -235 -304 -369 -477 -334 -431 -568 -731 -585
-753 -8 -9 -15 -21 -15 -27 0 -7 153 -98 370 -218 25 -14 81 -45 125 -70 44
-25 107 -60 139 -78 l60 -32 90 123 c93 125 425 572 551 740 39 51 77 103 85
115 8 12 23 31 32 43 102 129 267 361 261 366 -5 3 -60 42 -122 86 -136 96
-118 84 -316 221 -88 60 -165 113 -170 116 -6 4 -67 -66 -136 -155z"/>
<path d="M29105 21846 c-63 -31 -247 -117 -300 -141 -22 -10 -83 -38 -135 -63
-52 -24 -123 -57 -157 -73 -146 -67 -193 -89 -278 -129 -49 -23 -115 -54 -145
-67 -30 -14 -110 -52 -178 -84 -68 -33 -125 -59 -127 -59 -2 0 -50 -22 -107
-49 -57 -27 -133 -63 -170 -80 -38 -17 -68 -33 -68 -36 0 -6 368 -411 532
-587 l38 -40 37 15 c21 8 150 70 287 136 136 67 276 135 310 150 56 27 163 78
536 259 74 35 208 100 298 143 l164 79 -31 42 c-236 329 -438 602 -446 605 -6
1 -32 -8 -60 -21z"/>
<path d="M28295 20021 c40 -151 176 -654 196 -721 l18 -65 128 -2 c171 -2 821
-13 1113 -18 578 -12 870 -15 870 -10 0 3 -9 38 -21 78 -11 39 -29 106 -40
147 -11 41 -34 122 -50 180 -17 58 -41 143 -54 190 -12 47 -33 122 -46 168
-16 58 -27 82 -38 83 -58 3 -242 8 -461 13 -140 4 -334 9 -430 11 -172 5 -262
7 -785 20 -143 4 -297 8 -341 9 l-81 3 22 -86z"/>
<path d="M19485 19159 c-33 -4 -87 -10 -120 -14 -33 -3 -73 -8 -88 -10 -15 -2
-60 -6 -100 -10 -40 -4 -79 -8 -87 -10 -9 -2 -47 -6 -85 -10 -39 -3 -81 -8
-95 -10 -26 -4 -128 -15 -189 -20 -51 -5 -151 -16 -181 -20 -41 -6 -121 -15
-175 -20 -54 -5 -143 -14 -282 -30 -82 -9 -118 -13 -183 -20 -36 -4 -76 -8
-90 -10 -14 -2 -54 -6 -90 -10 -36 -4 -76 -8 -90 -10 -25 -4 -122 -14 -189
-20 -20 -2 -54 -6 -76 -9 -22 -2 -69 -8 -105 -11 -36 -3 -72 -8 -80 -10 -8 -2
-51 -7 -94 -10 -43 -4 -86 -8 -95 -10 -9 -1 -50 -6 -91 -10 -41 -3 -86 -8
-100 -10 -14 -2 -50 -7 -80 -10 -125 -12 -157 -16 -190 -20 -19 -2 -60 -7 -90
-10 -30 -3 -71 -8 -90 -10 -19 -3 -59 -7 -87 -10 -29 -3 -70 -7 -90 -10 -21
-3 -67 -8 -103 -11 -36 -3 -78 -7 -95 -10 -16 -3 -52 -7 -80 -9 -45 -4 -74 -7
-185 -20 -19 -3 -62 -7 -95 -10 -33 -3 -69 -7 -80 -9 -11 -2 -54 -7 -95 -11
-41 -4 -82 -8 -90 -10 -8 -1 -49 -6 -90 -9 -41 -4 -84 -9 -95 -11 -11 -2 -30
-4 -42 -4 -23 -1 -22 -3 114 -301 14 -30 38 -82 53 -115 15 -33 36 -80 48
-105 11 -25 56 -124 100 -220 43 -96 93 -206 111 -245 17 -38 96 -212 175
-385 131 -290 144 -315 167 -314 13 1 80 9 149 18 69 9 143 19 165 22 22 2 58
7 80 10 64 9 87 12 145 19 30 4 62 9 70 10 8 2 42 6 75 9 33 4 71 9 85 11 14
2 45 7 70 10 25 4 56 8 70 10 82 12 110 15 155 20 28 3 61 8 75 10 14 3 45 7
70 10 60 7 93 11 235 31 66 9 134 18 150 19 17 2 44 5 60 8 17 3 55 9 85 12
30 4 62 9 70 10 8 2 42 6 75 9 33 4 71 9 85 11 14 2 43 7 65 10 127 17 205 27
240 31 22 3 56 7 75 10 44 6 71 10 140 18 30 4 62 9 70 11 8 2 43 7 77 10 69
8 88 10 151 19 23 3 61 9 85 12 23 3 53 7 67 9 14 2 66 9 115 15 50 6 101 13
115 15 14 2 49 7 79 10 30 4 62 8 71 10 9 2 41 6 71 10 30 3 65 8 79 10 14 2
43 6 65 9 22 3 76 10 120 16 44 6 98 13 120 15 49 6 111 14 145 20 14 2 49 7
79 10 30 4 61 8 70 10 9 1 41 6 72 9 31 4 66 8 77 11 12 2 52 7 89 10 37 4 70
9 73 10 3 2 34 6 70 10 76 8 101 13 107 19 2 2 -40 87 -95 187 -54 101 -127
238 -162 304 -35 66 -66 125 -70 130 -4 6 -40 73 -80 150 -40 77 -80 154 -90
170 -9 17 -41 75 -70 130 -29 55 -83 156 -120 225 -37 69 -84 157 -105 197
-43 81 -36 78 -170 62z"/>
<path d="M28549 18808 c-1 -13 -3 -32 -4 -43 -1 -11 -6 -63 -10 -115 -4 -52
-9 -109 -11 -126 -2 -16 -6 -64 -9 -105 -11 -142 -15 -194 -19 -244 -3 -27 -8
-86 -11 -130 -3 -44 -8 -93 -11 -108 -5 -30 -1 -32 291 -167 33 -15 118 -55
189 -89 70 -33 130 -61 131 -61 1 0 54 -24 117 -54 63 -30 150 -71 194 -91 43
-21 117 -55 164 -77 47 -22 110 -51 140 -65 65 -30 187 -87 320 -150 52 -25
120 -57 150 -70 30 -14 115 -54 188 -89 74 -35 135 -64 137 -64 1 0 55 -25
118 -55 64 -30 122 -56 128 -57 13 -3 15 6 24 115 3 45 8 93 10 107 2 14 7 66
11 115 3 50 8 104 9 120 6 64 16 172 20 215 2 25 7 77 10 115 4 39 8 86 11
105 l4 36 -77 36 c-43 20 -114 53 -158 74 -44 20 -111 51 -150 69 -232 107
-499 231 -555 257 -36 16 -96 45 -135 62 -38 18 -97 46 -130 61 -33 15 -186
86 -340 157 -154 72 -304 141 -334 155 -30 14 -130 60 -224 104 -93 43 -173
79 -178 79 -5 0 -10 -10 -10 -22z"/>
<path d="M28279 17153 c-95 -142 -214 -320 -266 -395 -51 -76 -93 -141 -93
-146 0 -9 26 -37 256 -279 78 -81 155 -162 170 -178 16 -17 95 -100 176 -185
80 -85 163 -173 184 -195 20 -22 108 -114 194 -205 87 -91 172 -181 190 -200
18 -19 95 -100 171 -180 76 -80 161 -170 190 -200 28 -30 114 -120 190 -200
75 -80 146 -155 157 -168 l19 -22 224 337 c123 185 226 342 228 348 2 5 11 19
20 30 10 11 25 32 34 47 16 26 16 28 -16 61 -115 123 -244 262 -258 278 -13
16 -104 113 -319 343 -36 39 -74 80 -85 91 -11 12 -71 76 -133 143 -62 66
-121 129 -130 140 -9 10 -65 70 -123 133 -59 63 -117 126 -130 140 -13 15 -74
80 -136 145 -61 66 -120 128 -130 140 -10 12 -70 76 -133 144 -63 67 -132 141
-154 164 -21 22 -48 52 -60 66 -12 14 -32 33 -43 43 l-22 19 -172 -259z"/>
<path d="M20995 16918 c-205 -133 -282 -184 -385 -250 -245 -159 -298 -193
-375 -243 -44 -29 -134 -87 -200 -129 -66 -43 -165 -107 -220 -143 -203 -132
-508 -330 -612 -398 -60 -38 -157 -101 -218 -140 -220 -144 -322 -209 -405
-263 -47 -30 -114 -74 -150 -97 -36 -23 -137 -89 -225 -147 -88 -57 -215 -139
-282 -182 -68 -43 -123 -82 -123 -86 0 -4 36 -40 81 -81 45 -41 93 -85 108
-99 40 -37 252 -233 265 -245 66 -60 235 -216 256 -235 14 -14 66 -61 114
-105 49 -44 106 -96 126 -115 21 -19 79 -73 131 -120 51 -47 103 -95 115 -107
13 -13 26 -23 30 -23 3 0 92 58 198 128 105 71 459 308 786 528 327 219 795
533 1040 697 245 164 635 425 867 580 l421 282 -21 22 c-12 11 -152 125 -312
252 -159 128 -297 237 -305 244 -18 15 -359 287 -378 302 -7 5 -18 15 -25 20
-17 15 -220 176 -232 185 -5 4 -37 -10 -70 -32z"/>
<path d="M27528 16077 c-578 -326 -798 -453 -798 -462 0 -9 305 -777 329 -830
5 -11 93 -231 196 -490 103 -258 193 -483 200 -500 7 -16 97 -241 200 -500
104 -258 189 -471 189 -472 1 -1 143 82 316 184 173 102 335 197 360 211 24
14 83 48 131 77 47 28 94 55 103 58 9 4 16 11 16 16 0 6 -25 75 -56 153 -31
79 -76 195 -101 258 -25 63 -101 256 -169 428 -68 172 -138 350 -155 395 -17
45 -39 101 -50 124 -10 24 -19 45 -19 47 0 3 -43 114 -96 248 -52 134 -107
272 -121 308 -14 36 -31 79 -38 95 -7 17 -40 100 -73 185 -115 295 -214 545
-216 547 -1 1 -68 -35 -148 -80z"/>
<path d="M22994 15504 c-101 -177 -109 -191 -209 -364 -39 -69 -83 -145 -97
-170 -14 -25 -94 -164 -178 -310 -83 -146 -162 -283 -175 -305 -19 -34 -180
-315 -236 -412 -11 -18 -27 -48 -37 -65 -11 -18 -44 -76 -74 -128 -30 -52 -66
-115 -80 -140 -23 -41 -299 -523 -496 -865 -44 -77 -80 -141 -79 -142 1 0 227
-85 502 -187 275 -103 516 -193 535 -201 121 -50 365 -134 370 -128 4 5 71
125 150 268 79 143 152 276 163 295 11 19 32 58 47 85 15 28 37 68 50 90 12
22 60 108 105 190 46 83 110 199 144 259 34 60 61 112 61 115 0 4 10 22 23 41
13 19 45 76 72 125 27 50 57 105 67 123 36 64 55 98 90 162 20 36 50 90 67
120 17 30 70 126 118 213 49 88 97 175 109 195 11 21 36 66 55 102 19 36 42
76 50 90 14 21 64 113 227 410 17 30 51 91 76 135 24 44 42 83 38 86 -4 4 -50
21 -102 39 -52 18 -266 91 -475 162 -209 71 -432 147 -495 169 -249 84 -295
99 -296 99 -1 0 -42 -70 -90 -156z"/>
<path d="M26259 15356 c-4 -4 -87 -13 -189 -22 -63 -5 -160 -15 -190 -19 -14
-2 -52 -6 -85 -9 -33 -4 -80 -8 -105 -11 -25 -2 -72 -7 -105 -10 -33 -4 -76
-8 -95 -10 -19 -2 -64 -6 -100 -10 -36 -3 -81 -8 -101 -11 -20 -2 -56 -6 -80
-8 -107 -10 -184 -19 -188 -22 -6 -5 -8 -38 -16 -260 -3 -104 -8 -229 -10
-279 -2 -49 -6 -164 -10 -255 -3 -91 -8 -205 -10 -255 -2 -49 -7 -162 -10
-250 -3 -88 -7 -198 -10 -245 -2 -47 -6 -168 -10 -270 -8 -210 -11 -289 -20
-515 -3 -88 -8 -207 -10 -265 -2 -58 -7 -170 -10 -250 -3 -80 -8 -196 -10
-258 l-4 -113 102 6 c115 7 192 12 287 20 36 2 108 7 160 10 52 3 115 8 140
10 25 2 90 6 145 10 55 3 125 7 155 10 30 2 100 7 155 10 55 4 103 9 107 13 3
4 9 79 13 167 3 88 8 207 10 265 3 58 7 173 10 255 3 83 7 200 10 260 5 103 7
163 20 525 9 234 15 387 20 515 5 116 8 194 20 530 3 88 8 198 10 245 2 47 7
170 11 275 3 104 7 192 9 195 5 8 -10 32 -16 26z"/>
</g>
</svg>
